<svg xmlns="http://www.w3.org/2000/svg" viewBox="0 0 26.21 34.45"><g id="Layer_2" data-name="Layer 2"><g id="Layer_1-2" data-name="Layer 1"><path fill="#cc7700" d="M19.36,16.87a10.43,10.43,0,0,0-3.56-3.15q-1.1-.57-4.24-2.31c-2.24-1.26-4-2.21-5.26-2.86A15.71,15.71,0,0,1,1.83,5.33,5.57,5.57,0,0,1,0,1.43,1.27,1.27,0,0,1,1.44,0q.71,0,3.33,2,2,1.53,7.17,4.83t8.75,5.26q4.74,2.44,5.13,3.12a2.91,2.91,0,0,1,.39,1.47q0,.86-5.85,4.9c-.33.21-.92.66-1.76,1.34a31.83,31.83,0,0,0-3.24,3.15L10.5,31.33a22.9,22.9,0,0,1-2.41,2.36,2.91,2.91,0,0,1-1.82.76,2.55,2.55,0,0,1-1.64-.72,2.06,2.06,0,0,1-.81-1.58q0-1,1.71-2.25A9.24,9.24,0,0,0,6.59,29a65.89,65.89,0,0,1,8.18-8.2A40.29,40.29,0,0,0,19.36,16.87Z"/></g></g></svg>