<?xml version="1.0" encoding="utf-8"?>
<!-- Generator: Adobe Illustrator 25.2.1, SVG Export Plug-In . SVG Version: 6.00 Build 0)  -->
<svg version="1.1" id="Layer_1" xmlns="http://www.w3.org/2000/svg" xmlns:xlink="http://www.w3.org/1999/xlink" viewBox="0 0 200 200" xml:space="preserve">
<path d="M41,128.4h107.5c5.6,0,9.3-1.2,11.3-3.6c1.7,0.6,3,1.6,3.9,3.1c0.9,1.4,1.3,2.9,1.3,4.4c0,2.9-1.2,5.1-3.8,6.6
	c-2.5,1.5-6.1,2.2-10.6,2.2H43L41,128.4z"/>
<path d="M41,94.3h107.5c5.6,0,9.3-1.2,11.3-3.6c1.7,0.6,3,1.6,3.9,3.1c0.9,1.4,1.3,2.9,1.3,4.4c0,2.9-1.2,5.1-3.8,6.6
	c-2.5,1.5-6.1,2.2-10.6,2.2H43L41,94.3z"/>
<path d="M40.9,60.6h107.5c5.6,0,9.3-1.2,11.3-3.6c1.7,0.6,3,1.6,3.9,3.1c0.9,1.4,1.3,2.9,1.3,4.4c0,2.9-1.2,5.1-3.8,6.6
	c-2.5,1.5-6.1,2.2-10.6,2.2H42.9L40.9,60.6z"/>
</svg>
