<?xml version="1.0" encoding="utf-8"?>
<svg version="1.1" xmlns="http://www.w3.org/2000/svg" xmlns:xlink="http://www.w3.org/1999/xlink" x="0px" y="0px"
	 viewBox="0 0 200 200" xml:space="preserve">
  <path d="M37.2,123.4h113.4c5.9,0,9.8-1.2,11.9-3.6c1.8,0.6,3.2,1.6,4.1,3.1c1,1.4,1.4,2.9,1.4,4.4c0,2.9-1.3,5.1-4,6.6
		c-2.6,1.5-6.4,2.2-11.2,2.2H39.3L37.2,123.4z"/>
  <path d="M37.2,94.3h113.4c5.9,0,9.8-1.2,11.9-3.6c1.8,0.6,3.2,1.6,4.1,3.1c1,1.4,1.4,2.9,1.4,4.4c0,2.9-1.3,5.1-4,6.6 c-2.6,1.5-6.4,2.2-11.2,2.2H39.3L37.2,94.3z"/>
  <path d="M37.2,65.3h113.4c5.9,0,9.8-1.2,11.9-3.6c1.8,0.6,3.2,1.6,4.1,3.1c1,1.4,1.4,2.9,1.4,4.4c0,2.9-1.3,5.1-4,6.6 c-2.6,1.5-6.4,2.2-11.2,2.2H39.3L37.2,65.3z"/>
</svg>
