<svg width="100%" height="100%" xmlns="http://www.w3.org/2000/svg" xmlns:xlink="http://www.w3.org/1999/xlink">

<style>
    .square { visibility: visible; }
    .landscape { visibility: hidden; }

     @media (min-aspect-ratio: 2/1) {
        .square { visibility: hidden; }
        .landscape { visibility: visible; }
	}

</style>

<symbol id="triangle" viewBox="0 0 835.25 844.77">
    <path fill="#e8f9f7" d="M835.25,389.27c-4.61,8.53-9,17.08-13.38,25.42-3.73,1.15-4.47,4.71-6,7.55A1082.93,1082.93,0,0,1,737.6,536.18C669,623.3,588.49,696.34,490.78,749.72,385.89,807.14,273,835.07,154.52,842.47c-6.44.48-13.14-.76-19.38,2.3-1.21-.75-2.65-1.3-3.86-2-3.85-7-7.67-14.12-11.73-21.09C38.6,684.78-6.52,538.18.77,377.34,6.48,248.11,43.84,127.07,98.66,10.8,101.54,4.88,105,2,111.85,1.55c17.37-1.2,34.48-2,51.89-1.28,96.15,4,186.82,30.94,274.13,69.09C508,100,575.18,136.52,637.58,181.57,716.11,239,786.76,303.5,835.25,389.27Z"/>
</symbol>

<symbol id="K" viewBox="0 0 616.85 1004.67">
	<path d="M28,911.11C13.14,900.65,5.36,878.64,5,861.62,4,807.53,3.92,753.4,2.5,699.31,1.18,553.57-2.08,407.73,1.93,262c1.4-42.69,6.92-85,11-127.5,1.72-36.68.29-73.76,9.73-109.6,6.75-21.16,28.55-12,37.1,2.89,9.53,14.65,14.43,33.28,9.92,50.52C64.12,110,65.88,142,63.65,173.86,41.4,368.63,54.24,565.39,54.53,761c.77,43.8,1.56,87.65,1.52,131.44C56.26,907.54,43.21,922.84,28,911.11Z"/><path d="M34.72,591.36c-21.63-18.67-.61-45.29,8.23-65.08,21.36-43.52,48.63-83.84,73.51-125.38C187.67,296.07,258.08,190.39,334.52,89.6,357.25,60.5,379.62,31.14,402.35,2c1.84-2.36,5-2.49,7.57-1.33,9.81,5.63,14.9,21.62,8.71,31.39-15.5,20.2-30.86,40.51-46.52,60.58-36.89,46.76-71.95,94.91-106,143.78-55.76,82.27-115,162-165.56,247.61-13.44,21.51-26.58,43.22-37.79,66-5.19,10.64-10.54,21.2-15.74,31.82C46.26,588.22,42.41,597,34.72,591.36Z"/>
	<path d="M575.49,1004.62c-33.21-1.44-62.82-17.64-89.71-34.59-21.93-13.57-44.11-26.78-65.16-41.55C374.84,896.2,331.7,860,294.82,818.83c-67.91-84.35-124.21-176.75-171.59-272.51C113.78,529.93,66.91,431,109.4,438.55c20.22,10.22,17,34.13,24.55,51.47,11.48,26.94,25.7,52.78,38.94,79C216,647.74,263.53,725.81,323.7,794.32a769.51,769.51,0,0,0,152.88,118c35.37,23.26,69.79,43,115,36.51,21.27.52,37.35,49.36,13.2,54.47A262.83,262.83,0,0,1,575.49,1004.62Z"/>
</symbol>


<symbol id="ira" viewBox="0 0 906.87 437.22">
	<path d="M102.73,404.24C-.08,385.55-9.85,246.76,6.12,178.8c1.71-14.28,5.39-28.3,9.39-42.26,1.63-7.4,2.16-19.88,14.26-20.49,14,1.14,21.07,14,24,23.78,3.84,17.68-7.35,35-9.35,52.65-2.75,20-6.92,39.92-7.82,60,1.2,34.76,5.84,97.57,59.18,104.24,34.07,2.05,62.25-53.53,77.28-74.19a322.42,322.42,0,0,0,46.16-109.72c1.73-9.59.74-19.56,4.86-28.79,10.69-19.18,33.32,4.11,34.57,16.41,1.51,5.57,1.91,11.78-.61,17.21a200.66,200.66,0,0,1-4.21,30C243.63,247.71,227.23,287,203,323,182.37,351.7,153,411.17,102.73,404.24Z"/><path d="M438.87,423.78a81.71,81.71,0,0,1-48.68-24.68c-53.46-56-26.28-131-19.67-195.2-32.11,3.76-65.73,8.22-96.9-1.7C202.34,177.86,201.08,100.4,229.54,51c21.52-24.42,51.68,29.4,30,40.93-6.87,16.79-16,38.26-5.88,55,24.52,18.85,62.24,13.53,92.77,10.16,64.2-14.22,65.7,53.06,58.78,87.59a549,549,0,0,0-9.73,76.86c-1.89,22.18,2.84,52.94,37.12,54.9,21.52,2.78,40-9.28,56-19.34,43.33-30.73,58.91-76.4,76.33-119,16.69-25.07,43.57,19.33,34.1,33.3-18.9,47-37.61,97.11-85.92,130.33C492.48,415.52,466.83,428.84,438.87,423.78Z"/>
	<path d="M35.43,78.26A35.43,35.43,0,0,1,19,46.09c.52-15.2,11.07-63.44,38.25-39.57C69,18.44,73.21,36.7,60.37,49,54,59.16,60.21,89.55,35.43,78.26Z"/>
	<path d="M603.68,414.33c-68.72-30.67-68-119.81-42-171.91,13.21-26.5,34.17-50.22,59.52-70.06,15.41-11.51,30.61-25.94,52.61-28.27,27.21-1.72,51.74,17.82,56.76,38.62,49.12,13.26,6,121.36-.27,153.12-7,26.15-19.44,53.94-47.79,69.76C659.81,417.51,629.14,424.6,603.68,414.33Zm23.1-43.6c53.25-6.59,65-47.51,73.48-84,6.83-24.89,13.56-49.9,15.32-75.42-9.27-3-14.47-10.81-17.86-18-26.09-11.54-90.92,58.3-98.91,76.82C582.09,297.64,562.81,379.11,626.78,370.73Z"/>
	<path d="M813.5,435.92c-95.92-21.2-101.93-181.33-94-247.26,3.54-13.78,2-29.76,12.31-41.67,22.8-13.1,40.56,28.92,29,41.5-10.34,42.52-7.6,86.6-.22,129.3,6.36,30.55,20.55,88.59,74.06,66.74,9.94-4.08,19-9.41,27.91-14.74,8.41-4.4,17.4-14.36,27.8-7.36a35.42,35.42,0,0,1,16.44,32.17c.12,14.8-38.82,30.25-53.59,37.23C840.92,436.58,826.87,438.84,813.5,435.92Z"/>
</symbol>

<symbol id="square" viewBox="0 0 100 100">
    <use xlink:href="#triangle" x="0" y="5" width="80" height="80"  />
    <use xlink:href="#K" x="5" y="0" width="100" height="100"  />
</symbol>

<symbol id="landscape" viewBox="0 0 100 100">
    <use xlink:href="#triangle" x="-60" y="10" width="80" height="80"  />
    <use xlink:href="#K" x="-55" y="4" width="95" height="95"  />
    <use xlink:href="#ira" x="-6" y="8" width="90" height="90"  />
</symbol>

<use class="square" xlink:href="#square" x="5%" y="5%" width="90%" height="90%"/>
<use class="landscape" xlink:href="#landscape" x="5%" y="5%" width="90%" height="90%"/>

</svg>